<?xml version="1.0" standalone="no"?>
<!DOCTYPE svg PUBLIC "-//W3C//DTD SVG 20010904//EN"
 "http://www.w3.org/TR/2001/REC-SVG-20010904/DTD/svg10.dtd">
<svg version="1.0" xmlns="http://www.w3.org/2000/svg"
 width="512.000000pt" height="512.000000pt" viewBox="0 0 512.000000 512.000000"
 preserveAspectRatio="xMidYMid meet">
<metadata>
Created by potrace 1.14, written by Peter Selinger 2001-2017
</metadata>
<g transform="translate(0.000000,512.000000) scale(0.100000,-0.100000)"
fill="#000000" stroke="none">
<path d="M2490 5104 c-92 -40 -168 -141 -239 -318 -39 -98 -103 -337 -132
-488 l-10 -57 -61 72 c-94 111 -274 285 -365 354 -149 112 -281 155 -376 124
-49 -17 -103 -79 -122 -143 -44 -148 7 -484 119 -782 14 -37 26 -70 26 -71 0
-2 -52 14 -116 36 -161 54 -202 51 -224 -15 -9 -28 -8 -40 4 -64 17 -34 9 -29
176 -87 384 -133 845 -369 1058 -543 l43 -35 -48 -32 c-27 -18 -66 -51 -88
-74 -21 -23 -43 -41 -47 -41 -4 0 -146 79 -315 175 -247 141 -313 175 -333
170 -71 -18 -95 -102 -42 -147 15 -13 157 -97 316 -187 251 -144 287 -167 283
-185 -25 -105 -37 -165 -37 -188 0 -16 -2 -28 -5 -28 -12 0 -202 88 -285 132
-485 260 -1030 718 -1160 977 -19 38 -21 54 -15 107 6 59 5 65 -19 89 -27 27
-72 33 -108 14 -49 -27 -63 -148 -27 -245 49 -130 231 -349 438 -528 50 -43
89 -81 87 -83 -3 -3 -58 -16 -123 -29 -488 -99 -757 -258 -740 -436 17 -183
290 -326 819 -428 l57 -11 -72 -61 c-192 -163 -383 -381 -447 -512 -37 -75
-50 -171 -31 -229 17 -51 79 -103 148 -123 137 -40 498 15 759 116 43 16 79
28 82 26 2 -2 -19 -75 -48 -161 -69 -214 -102 -381 -103 -520 -1 -123 9 -169
51 -236 76 -119 223 -113 417 16 95 63 283 239 396 370 40 47 74 84 75 82 1
-1 14 -59 28 -128 104 -513 269 -781 460 -745 99 19 199 138 275 330 39 98
103 338 132 488 l10 57 61 -72 c170 -200 382 -384 515 -448 76 -36 169 -48
226 -30 51 17 103 79 123 147 25 85 15 283 -20 438 -22 96 -97 343 -122 403
-4 8 21 2 63 -13 207 -80 503 -144 659 -144 128 0 226 47 264 125 63 130 -22
311 -259 557 -62 65 -149 148 -192 185 -44 36 -79 69 -79 72 0 3 68 21 151 39
363 79 606 191 682 314 123 199 -84 382 -567 499 -88 21 -187 44 -218 50 l-57
10 118 103 c268 236 427 453 439 601 6 80 -9 125 -58 169 -99 89 -313 91 -635
6 -95 -25 -240 -71 -298 -95 -15 -6 -14 1 9 66 87 240 135 463 135 624 0 133
-18 200 -67 255 -44 48 -88 63 -169 58 -149 -9 -375 -176 -618 -456 -94 -108
-85 -112 -117 53 -48 241 -127 463 -209 583 -82 121 -186 167 -281 126z m103
-174 c34 -27 107 -173 146 -290 93 -286 147 -651 157 -1070 l6 -235 -57 -39
c-31 -21 -85 -63 -120 -92 -35 -30 -66 -54 -69 -54 -3 0 -6 162 -6 359 l0 360
-24 27 c-33 39 -89 39 -122 0 l-24 -27 0 -360 c0 -331 -4 -383 -25 -349 -3 5
-58 49 -122 97 l-116 87 6 240 c9 350 48 652 118 923 61 239 161 440 220 443
4 0 18 -9 32 -20z m-1146 -315 c121 -51 349 -263 551 -513 l75 -93 -12 -152
c-6 -84 -11 -210 -11 -280 l0 -128 -82 46 c-46 26 -159 84 -253 130 l-170 83
-32 84 c-146 373 -213 719 -161 821 11 21 47 22 95 2z m2173 -110 c0 -165 -76
-469 -190 -758 l-43 -108 -155 -74 c-85 -41 -156 -75 -157 -75 -1 0 -5 87 -9
193 -4 105 -11 221 -15 257 l-8 65 76 95 c147 183 261 300 406 416 88 71 95
70 95 -11z m985 -737 c33 -15 33 -45 -1 -112 -158 -316 -914 -904 -1400 -1089
l-42 -16 -7 57 c-3 31 -13 83 -22 115 -9 32 -14 59 -12 61 2 2 136 79 298 172
162 92 303 176 313 186 26 26 24 86 -4 115 -42 45 -65 36 -392 -151 l-304
-174 -44 45 c-23 24 -65 59 -91 76 l-48 31 33 28 c100 83 337 227 551 334 313
157 613 264 922 328 46 9 226 5 250 -6z m-1920 -803 c105 -29 205 -116 258
-225 30 -61 32 -70 32 -180 0 -109 -2 -118 -32 -181 -82 -167 -267 -266 -445
-238 -285 45 -442 342 -319 604 87 188 295 278 506 220z m-1517 -173 c92 -65
282 -186 330 -211 12 -6 22 -16 22 -20 0 -5 -29 -25 -64 -45 -76 -43 -295
-186 -350 -229 l-39 -31 -145 23 c-356 55 -669 163 -736 254 l-20 27 20 28
c46 62 208 134 424 189 136 34 381 81 433 82 19 1 59 -21 125 -67z m3072 43
c254 -45 374 -82 458 -144 82 -60 104 -136 59 -202 -33 -50 -121 -106 -206
-133 -86 -27 -284 -69 -412 -87 l-85 -12 -100 70 c-92 64 -279 185 -331 212
-13 6 -23 15 -23 20 0 5 39 31 88 59 48 28 150 94 227 146 77 53 149 96 160
96 11 0 86 -11 165 -25z m-2282 -466 c23 -7 41 -17 39 -23 -2 -6 -129 -83
-283 -171 -336 -192 -332 -190 -344 -221 -20 -50 26 -114 82 -114 12 0 161 79
331 176 170 97 310 174 312 172 2 -2 -5 -53 -15 -113 -11 -61 -20 -128 -20
-150 l0 -41 -115 -67 c-261 -154 -525 -276 -790 -366 -301 -103 -563 -143
-647 -99 -24 12 -23 59 3 111 123 245 641 688 1107 948 l103 57 97 -43 c53
-23 116 -48 140 -56z m1544 32 c289 -161 614 -400 837 -616 133 -128 220 -234
262 -316 58 -116 36 -135 -154 -126 -185 8 -441 79 -762 214 -229 97 -612 298
-620 327 -2 6 -10 65 -19 131 -9 66 -19 130 -22 143 -4 13 -2 22 5 22 6 0 146
-77 312 -172 202 -115 310 -171 330 -171 73 0 108 97 51 145 -15 13 -157 97
-315 187 -158 90 -290 167 -292 171 -3 4 28 19 69 34 40 14 102 39 137 55 35
16 66 30 69 30 3 1 54 -26 112 -58z m-611 -566 c37 -524 -72 -1249 -234 -1549
-72 -134 -105 -142 -172 -43 -101 149 -195 508 -241 922 -27 241 -23 817 5
864 6 10 20 7 60 -13 28 -15 75 -33 104 -40 l52 -13 5 -354 c4 -254 8 -360 17
-375 33 -57 130 -46 152 16 7 22 11 146 11 375 l0 342 63 17 c34 10 82 28 107
41 l45 23 7 -26 c4 -15 13 -99 19 -187z m-823 -645 l9 -75 -56 -70 c-292 -367
-621 -631 -669 -537 -52 101 15 444 161 821 l32 83 160 78 c88 42 201 100 250
128 l90 50 7 -201 c4 -111 11 -236 16 -277z m1163 366 l154 -74 44 -114 c69
-175 129 -369 157 -507 25 -122 37 -292 22 -307 -27 -26 -306 240 -486 464
l-75 93 12 152 c6 84 11 200 11 260 0 59 2 107 4 107 1 0 72 -33 157 -74z"/>
<path d="M700 3937 c-76 -38 -48 -157 37 -157 85 0 117 117 42 155 -34 18 -47
18 -79 2z"/>
</g>
</svg>
