<?xml version="1.0" standalone="no"?>
<!DOCTYPE svg PUBLIC "-//W3C//DTD SVG 20010904//EN"
 "http://www.w3.org/TR/2001/REC-SVG-20010904/DTD/svg10.dtd">
<svg version="1.0" xmlns="http://www.w3.org/2000/svg"
 width="222.000000pt" height="222.000000pt" viewBox="0 0 222.000000 222.000000"
 preserveAspectRatio="xMidYMid meet">
<metadata>
Created by potrace 1.14, written by Peter Selinger 2001-2017
</metadata>
<g transform="translate(0.000000,222.000000) scale(0.100000,-0.100000)"
fill="#000000" stroke="none">
<path d="M670 1456 c0 -8 5 -18 10 -21 6 -4 10 -85 10 -211 l0 -204 55 0 55 0
0 225 0 225 -65 0 c-50 0 -65 -3 -65 -14z"/>
<path d="M20 1230 l0 -210 115 0 c162 0 205 26 205 123 0 38 -5 53 -25 72 -13
14 -29 25 -34 25 -6 0 1 11 14 24 48 48 40 135 -15 163 -16 8 -68 13 -142 13
l-118 0 0 -210z m192 115 c15 -33 -12 -75 -47 -75 -23 0 -25 3 -25 50 0 49 1
50 30 50 23 0 33 -6 42 -25z m-11 -145 c12 -7 19 -21 19 -41 0 -47 -16 -69
-50 -69 -30 0 -30 0 -30 60 0 54 2 60 21 60 11 0 29 -5 40 -10z"/>
<path d="M1187 1366 c-10 -25 -26 -46 -38 -49 -13 -3 -19 -14 -19 -31 0 -14 4
-26 9 -26 5 0 11 -46 13 -101 4 -96 5 -103 31 -125 32 -28 63 -30 112 -10 44
19 49 53 8 58 -28 3 -28 3 -31 91 l-3 87 31 0 c28 0 30 3 30 35 0 32 -2 35
-30 35 -28 0 -30 2 -30 40 0 38 -1 40 -32 40 -29 0 -35 -5 -51 -44z"/>
<path d="M433 1310 c-45 -27 -63 -68 -63 -142 0 -67 21 -117 57 -136 56 -30
145 -22 196 19 22 17 25 23 15 38 -10 16 -14 17 -37 5 -52 -28 -111 -11 -111
31 0 24 2 25 80 25 l80 0 0 44 c0 62 -18 104 -51 121 -41 22 -127 19 -166 -5z
m105 -63 c3 -34 1 -37 -22 -37 -23 0 -26 4 -26 33 0 38 7 49 30 45 9 -2 16
-16 18 -41z"/>
<path d="M890 1316 c-27 -10 -35 -18 -35 -37 0 -23 2 -24 61 -21 45 3 63 0 73
-12 18 -21 5 -36 -30 -36 -71 0 -129 -47 -129 -106 0 -73 79 -114 144 -76 28
17 35 18 40 6 4 -9 21 -14 53 -14 l48 0 -5 122 c-6 125 -15 159 -50 178 -26
14 -127 11 -170 -4z m110 -192 c0 -41 -2 -45 -22 -42 -41 6 -33 88 8 88 10 0
14 -14 14 -46z"/>
<path d="M1344 1316 c-3 -8 -1 -23 5 -35 6 -11 11 -62 11 -115 0 -84 3 -98 23
-120 33 -38 74 -43 119 -13 34 24 36 24 41 6 4 -16 14 -19 56 -19 l52 0 -3
153 -3 152 -67 3 c-67 3 -68 3 -68 -23 0 -14 5 -25 10 -25 7 0 10 -33 8 -92
-3 -82 -5 -93 -22 -96 -30 -6 -36 16 -36 131 l0 107 -60 0 c-43 0 -62 -4 -66
-14z"/>
<path d="M1718 1318 c-30 -8 -38 -15 -38 -33 0 -13 5 -27 10 -30 6 -4 10 -55
10 -121 l0 -114 55 0 54 0 3 88 3 87 35 3 c44 4 50 14 50 80 0 39 -4 52 -15
52 -30 0 -68 -26 -80 -53 l-12 -29 -7 41 c-7 44 -9 45 -68 29z"/>
<path d="M1973 1317 c-41 -16 -46 -21 -38 -46 6 -19 12 -20 63 -15 45 5 60 3
71 -9 18 -22 6 -37 -30 -37 -71 0 -129 -47 -129 -106 0 -73 79 -114 145 -75
30 18 37 18 41 6 4 -10 21 -15 53 -15 l46 0 -5 122 c-6 125 -15 159 -50 178
-25 13 -127 11 -167 -3z m107 -193 c0 -41 -2 -45 -22 -42 -41 6 -33 88 8 88
10 0 14 -14 14 -46z"/>
<path d="M226 888 c-3 -13 -6 -49 -6 -80 0 -43 4 -58 14 -58 14 0 25 39 27 94
1 26 3 22 13 -19 13 -59 41 -74 51 -28 16 75 20 77 23 16 l3 -63 44 0 c33 0
45 4 45 15 0 20 37 19 48 -1 5 -9 18 -14 29 -12 20 3 20 3 -1 78 -19 66 -24
75 -47 78 -24 3 -27 -2 -44 -65 -22 -86 -35 -101 -35 -41 0 25 -3 60 -6 77 -6
27 -11 32 -33 29 -19 -2 -27 -10 -29 -28 -5 -33 -22 -51 -22 -23 0 38 -11 53
-40 53 -20 0 -29 -6 -34 -22z m247 -80 c-2 -5 -8 -8 -14 -8 -11 0 -12 43 -2
54 9 8 22 -34 16 -46z"/>
<path d="M550 830 l0 -80 38 0 c20 0 42 4 48 8 34 23 46 109 18 136 -9 10 -33
16 -60 16 l-44 0 0 -80z m73 35 c6 -34 -6 -88 -21 -93 -9 -3 -12 14 -12 57 0
45 4 61 14 61 7 0 16 -11 19 -25z"/>
<path d="M690 830 l0 -80 45 0 c33 0 45 4 45 15 0 9 -9 15 -25 15 -18 0 -25 5
-25 20 0 13 7 20 20 20 11 0 20 7 20 15 0 8 -9 15 -20 15 -11 0 -20 7 -20 15
0 9 9 15 25 15 16 0 25 6 25 15 0 11 -12 15 -45 15 l-45 0 0 -80z"/>
<path d="M860 830 c0 -73 2 -80 20 -80 18 0 20 7 20 80 0 73 -2 80 -20 80 -18
0 -20 -7 -20 -80z"/>
<path d="M920 830 c0 -73 2 -80 20 -80 17 0 20 7 20 48 l0 47 27 -47 c16 -30
33 -48 45 -48 16 0 18 9 18 80 0 75 -1 80 -21 80 -20 0 -21 -4 -16 -52 l6 -53
-27 53 c-20 40 -31 52 -49 52 -22 0 -23 -3 -23 -80z"/>
<path d="M1130 830 l0 -80 41 0 c22 0 49 5 60 10 21 12 25 50 8 67 -8 8 -8 17
-1 29 19 34 -3 54 -58 54 l-50 0 0 -80z m75 50 c8 -13 -14 -42 -26 -34 -5 3
-9 14 -9 25 0 20 24 26 35 9z m0 -80 c0 -8 -8 -16 -17 -18 -13 -2 -18 3 -18
18 0 15 5 20 18 18 9 -2 17 -10 17 -18z"/>
<path d="M1270 830 l0 -80 45 0 c33 0 45 4 45 15 0 9 -9 15 -25 15 -18 0 -25
5 -25 20 0 13 7 20 20 20 11 0 20 7 20 15 0 8 -9 15 -20 15 -11 0 -20 7 -20
15 0 9 9 15 25 15 16 0 25 6 25 15 0 11 -12 15 -45 15 l-45 0 0 -80z"/>
<path d="M1380 830 l0 -80 65 0 c51 0 65 3 65 15 0 8 9 15 20 15 11 0 23 -7
26 -15 4 -8 17 -15 31 -15 19 0 24 4 19 16 -3 8 -14 44 -23 80 -16 58 -20 64
-44 64 -24 0 -28 -6 -44 -67 -18 -68 -35 -102 -35 -70 0 10 -8 17 -20 17 -18
0 -20 7 -20 60 0 53 -2 60 -20 60 -18 0 -20 -7 -20 -80z m164 -2 c5 -21 3 -28
-9 -28 -16 0 -19 17 -9 45 8 19 9 18 18 -17z"/>
<path d="M1620 830 c0 -73 2 -80 20 -80 16 0 20 7 20 31 0 38 24 35 28 -4 3
-21 9 -27 27 -27 19 0 22 4 18 23 -3 12 -10 27 -15 34 -5 7 -5 14 2 18 5 3 10
21 10 40 0 37 -12 45 -71 45 l-39 0 0 -80z m68 27 c2 -19 -1 -27 -12 -27 -11
0 -16 10 -16 31 0 38 24 35 28 -4z"/>
<path d="M1750 852 c0 -72 18 -102 63 -102 53 0 61 12 65 89 4 67 3 71 -17 71
-19 0 -21 -6 -21 -59 0 -37 -5 -63 -13 -70 -21 -17 -27 -3 -27 66 0 61 -1 63
-25 63 -24 0 -25 -3 -25 -58z"/>
<path d="M1901 892 c-15 -28 -2 -61 31 -78 33 -17 27 -38 -9 -31 -18 3 -23 0
-21 -12 4 -22 61 -27 82 -6 24 25 19 51 -15 78 -34 26 -32 52 3 41 15 -4 19
-2 16 7 -3 8 -21 15 -41 17 -27 2 -38 -2 -46 -16z"/>
</g>
</svg>
